<svg xmlns="http://www.w3.org/2000/svg" viewBox="0 0 720 738" width="720" height="738" role="img" aria-label="Open jobs by field"><style>
text{font-family:-apple-system,BlinkMacSystemFont,"SF Pro Text","Helvetica Neue","Segoe UI",Roboto,sans-serif;fill:#000}
.sub,.val,.axis{fill:#6c6c70}.bar{fill:#007aff}.track{fill:#e5e5ea}.grid{stroke:#d1d1d6}
.l1{fill:none;stroke:#007aff;stroke-width:2.5}.d1{fill:#007aff}.l2{fill:none;stroke:#ff9500;stroke-width:2.5}.d2{fill:#ff9500}
.l3{fill:none;stroke:#34c759;stroke-width:2.5}.d3{fill:#34c759}.l4{fill:none;stroke:#af52de;stroke-width:2.5}.d4{fill:#af52de}
.l5{fill:none;stroke:#ff3b30;stroke-width:2.5}.d5{fill:#ff3b30}.l6{fill:none;stroke:#00b8d4;stroke-width:2.5}.d6{fill:#00b8d4}
@media(prefers-color-scheme:dark){text{fill:#fff}.sub,.val,.axis{fill:#98989d}.bar{fill:#0a84ff}.track{fill:#2c2c2e}.grid{stroke:#38383a}
.l1{stroke:#0a84ff}.d1{fill:#0a84ff}.l2{stroke:#ff9f0a}.d2{fill:#ff9f0a}
.l3{stroke:#30d158}.d3{fill:#30d158}.l4{stroke:#bf5af2}.d4{fill:#bf5af2}.l5{stroke:#ff453a}.d5{fill:#ff453a}.l6{stroke:#40cbe0}.d6{fill:#40cbe0}}
</style><text x="24" y="34" font-size="18" font-weight="600">Open jobs by field</text><text class="sub" x="24" y="56" font-size="12">55,016 open jobs · updated 2026-10-05</text><text x="204" y="92" font-size="13" text-anchor="end">engineering</text><rect class="track" x="214" y="78" width="416" height="18" rx="4"/><rect class="bar" x="214" y="78" width="416.0" height="18" rx="4"/><text class="val" x="638" y="92" font-size="12">13,972</text><text x="204" y="120" font-size="13" text-anchor="end">sales</text><rect class="track" x="214" y="106" width="416" height="18" rx="4"/><rect class="bar" x="214" y="106" width="196.9" height="18" rx="4"/><text class="val" x="638" y="120" font-size="12">6,614</text><text x="204" y="148" font-size="13" text-anchor="end">other</text><rect class="track" x="214" y="134" width="416" height="18" rx="4"/><rect class="bar" x="214" y="134" width="186.4" height="18" rx="4"/><text class="val" x="638" y="148" font-size="12">6,260</text><text x="204" y="176" font-size="13" text-anchor="end">operations</text><rect class="track" x="214" y="162" width="416" height="18" rx="4"/><rect class="bar" x="214" y="162" width="107.5" height="18" rx="4"/><text class="val" x="638" y="176" font-size="12">3,611</text><text x="204" y="204" font-size="13" text-anchor="end">data</text><rect class="track" x="214" y="190" width="416" height="18" rx="4"/><rect class="bar" x="214" y="190" width="97.2" height="18" rx="4"/><text class="val" x="638" y="204" font-size="12">3,266</text><text x="204" y="232" font-size="13" text-anchor="end">finance</text><rect class="track" x="214" y="218" width="416" height="18" rx="4"/><rect class="bar" x="214" y="218" width="93.2" height="18" rx="4"/><text class="val" x="638" y="232" font-size="12">3,131</text><text x="204" y="260" font-size="13" text-anchor="end">healthcare</text><rect class="track" x="214" y="246" width="416" height="18" rx="4"/><rect class="bar" x="214" y="246" width="63.8" height="18" rx="4"/><text class="val" x="638" y="260" font-size="12">2,143</text><text x="204" y="288" font-size="13" text-anchor="end">retail</text><rect class="track" x="214" y="274" width="416" height="18" rx="4"/><rect class="bar" x="214" y="274" width="57.6" height="18" rx="4"/><text class="val" x="638" y="288" font-size="12">1,935</text><text x="204" y="316" font-size="13" text-anchor="end">marketing</text><rect class="track" x="214" y="302" width="416" height="18" rx="4"/><rect class="bar" x="214" y="302" width="57.5" height="18" rx="4"/><text class="val" x="638" y="316" font-size="12">1,931</text><text x="204" y="344" font-size="13" text-anchor="end">manufacturing</text><rect class="track" x="214" y="330" width="416" height="18" rx="4"/><rect class="bar" x="214" y="330" width="53.6" height="18" rx="4"/><text class="val" x="638" y="344" font-size="12">1,801</text><text x="204" y="372" font-size="13" text-anchor="end">product</text><rect class="track" x="214" y="358" width="416" height="18" rx="4"/><rect class="bar" x="214" y="358" width="46.5" height="18" rx="4"/><text class="val" x="638" y="372" font-size="12">1,563</text><text x="204" y="400" font-size="13" text-anchor="end">support</text><rect class="track" x="214" y="386" width="416" height="18" rx="4"/><rect class="bar" x="214" y="386" width="41.8" height="18" rx="4"/><text class="val" x="638" y="400" font-size="12">1,405</text><text x="204" y="428" font-size="13" text-anchor="end">design</text><rect class="track" x="214" y="414" width="416" height="18" rx="4"/><rect class="bar" x="214" y="414" width="38.4" height="18" rx="4"/><text class="val" x="638" y="428" font-size="12">1,291</text><text x="204" y="456" font-size="13" text-anchor="end">security</text><rect class="track" x="214" y="442" width="416" height="18" rx="4"/><rect class="bar" x="214" y="442" width="30.0" height="18" rx="4"/><text class="val" x="638" y="456" font-size="12">1,009</text><text x="204" y="484" font-size="13" text-anchor="end">administrative</text><rect class="track" x="214" y="470" width="416" height="18" rx="4"/><rect class="bar" x="214" y="470" width="29.4" height="18" rx="4"/><text class="val" x="638" y="484" font-size="12">987</text><text x="204" y="512" font-size="13" text-anchor="end">people</text><rect class="track" x="214" y="498" width="416" height="18" rx="4"/><rect class="bar" x="214" y="498" width="25.9" height="18" rx="4"/><text class="val" x="638" y="512" font-size="12">870</text><text x="204" y="540" font-size="13" text-anchor="end">consulting</text><rect class="track" x="214" y="526" width="416" height="18" rx="4"/><rect class="bar" x="214" y="526" width="22.6" height="18" rx="4"/><text class="val" x="638" y="540" font-size="12">759</text><text x="204" y="568" font-size="13" text-anchor="end">logistics</text><rect class="track" x="214" y="554" width="416" height="18" rx="4"/><rect class="bar" x="214" y="554" width="21.0" height="18" rx="4"/><text class="val" x="638" y="568" font-size="12">704</text><text x="204" y="596" font-size="13" text-anchor="end">protective</text><rect class="track" x="214" y="582" width="416" height="18" rx="4"/><rect class="bar" x="214" y="582" width="19.1" height="18" rx="4"/><text class="val" x="638" y="596" font-size="12">642</text><text x="204" y="624" font-size="13" text-anchor="end">legal</text><rect class="track" x="214" y="610" width="416" height="18" rx="4"/><rect class="bar" x="214" y="610" width="18.2" height="18" rx="4"/><text class="val" x="638" y="624" font-size="12">612</text><text x="204" y="652" font-size="13" text-anchor="end">science</text><rect class="track" x="214" y="638" width="416" height="18" rx="4"/><rect class="bar" x="214" y="638" width="8.2" height="18" rx="4"/><text class="val" x="638" y="652" font-size="12">274</text><text x="204" y="680" font-size="13" text-anchor="end">education</text><rect class="track" x="214" y="666" width="416" height="18" rx="4"/><rect class="bar" x="214" y="666" width="6.2" height="18" rx="4"/><text class="val" x="638" y="680" font-size="12">208</text><text x="204" y="708" font-size="13" text-anchor="end">social</text><rect class="track" x="214" y="694" width="416" height="18" rx="4"/><rect class="bar" x="214" y="694" width="2.0" height="18" rx="4"/><text class="val" x="638" y="708" font-size="12">28</text></svg>
