<svg xmlns="http://www.w3.org/2000/svg" viewBox="0 0 720 598" width="720" height="598" role="img" aria-label="Open jobs by field"><style>
text{font-family:-apple-system,BlinkMacSystemFont,"SF Pro Text","Helvetica Neue","Segoe UI",Roboto,sans-serif;fill:#000}
.sub,.val,.axis{fill:#6c6c70}.bar{fill:#007aff}.track{fill:#e5e5ea}.grid{stroke:#d1d1d6}
.l1{fill:none;stroke:#007aff;stroke-width:2.5}.d1{fill:#007aff}.l2{fill:none;stroke:#ff9500;stroke-width:2.5}.d2{fill:#ff9500}
@media(prefers-color-scheme:dark){text{fill:#fff}.sub,.val,.axis{fill:#98989d}.bar{fill:#0a84ff}.track{fill:#2c2c2e}.grid{stroke:#38383a}
.l1{stroke:#0a84ff}.d1{fill:#0a84ff}.l2{stroke:#ff9f0a}.d2{fill:#ff9f0a}}
</style><text x="24" y="34" font-size="18" font-weight="600">Open jobs by field</text><text class="sub" x="24" y="56" font-size="12">46,622 open jobs · updated 2026-10-04</text><text x="204" y="92" font-size="13" text-anchor="end">engineering</text><rect class="track" x="214" y="78" width="416" height="18" rx="4"/><rect class="bar" x="214" y="78" width="416.0" height="18" rx="4"/><text class="val" x="638" y="92" font-size="12">12,805</text><text x="204" y="120" font-size="13" text-anchor="end">other</text><rect class="track" x="214" y="106" width="416" height="18" rx="4"/><rect class="bar" x="214" y="106" width="254.7" height="18" rx="4"/><text class="val" x="638" y="120" font-size="12">7,839</text><text x="204" y="148" font-size="13" text-anchor="end">sales</text><rect class="track" x="214" y="134" width="416" height="18" rx="4"/><rect class="bar" x="214" y="134" width="186.1" height="18" rx="4"/><text class="val" x="638" y="148" font-size="12">5,727</text><text x="204" y="176" font-size="13" text-anchor="end">operations</text><rect class="track" x="214" y="162" width="416" height="18" rx="4"/><rect class="bar" x="214" y="162" width="119.4" height="18" rx="4"/><text class="val" x="638" y="176" font-size="12">3,674</text><text x="204" y="204" font-size="13" text-anchor="end">data</text><rect class="track" x="214" y="190" width="416" height="18" rx="4"/><rect class="bar" x="214" y="190" width="98.8" height="18" rx="4"/><text class="val" x="638" y="204" font-size="12">3,040</text><text x="204" y="232" font-size="13" text-anchor="end">marketing</text><rect class="track" x="214" y="218" width="416" height="18" rx="4"/><rect class="bar" x="214" y="218" width="56.2" height="18" rx="4"/><text class="val" x="638" y="232" font-size="12">1,730</text><text x="204" y="260" font-size="13" text-anchor="end">healthcare</text><rect class="track" x="214" y="246" width="416" height="18" rx="4"/><rect class="bar" x="214" y="246" width="55.4" height="18" rx="4"/><text class="val" x="638" y="260" font-size="12">1,705</text><text x="204" y="288" font-size="13" text-anchor="end">finance</text><rect class="track" x="214" y="274" width="416" height="18" rx="4"/><rect class="bar" x="214" y="274" width="48.3" height="18" rx="4"/><text class="val" x="638" y="288" font-size="12">1,488</text><text x="204" y="316" font-size="13" text-anchor="end">product</text><rect class="track" x="214" y="302" width="416" height="18" rx="4"/><rect class="bar" x="214" y="302" width="47.3" height="18" rx="4"/><text class="val" x="638" y="316" font-size="12">1,455</text><text x="204" y="344" font-size="13" text-anchor="end">retail</text><rect class="track" x="214" y="330" width="416" height="18" rx="4"/><rect class="bar" x="214" y="330" width="41.3" height="18" rx="4"/><text class="val" x="638" y="344" font-size="12">1,271</text><text x="204" y="372" font-size="13" text-anchor="end">support</text><rect class="track" x="214" y="358" width="416" height="18" rx="4"/><rect class="bar" x="214" y="358" width="39.1" height="18" rx="4"/><text class="val" x="638" y="372" font-size="12">1,205</text><text x="204" y="400" font-size="13" text-anchor="end">design</text><rect class="track" x="214" y="386" width="416" height="18" rx="4"/><rect class="bar" x="214" y="386" width="38.6" height="18" rx="4"/><text class="val" x="638" y="400" font-size="12">1,189</text><text x="204" y="428" font-size="13" text-anchor="end">security</text><rect class="track" x="214" y="414" width="416" height="18" rx="4"/><rect class="bar" x="214" y="414" width="33.8" height="18" rx="4"/><text class="val" x="638" y="428" font-size="12">1,040</text><text x="204" y="456" font-size="13" text-anchor="end">manufacturing</text><rect class="track" x="214" y="442" width="416" height="18" rx="4"/><rect class="bar" x="214" y="442" width="27.6" height="18" rx="4"/><text class="val" x="638" y="456" font-size="12">850</text><text x="204" y="484" font-size="13" text-anchor="end">people</text><rect class="track" x="214" y="470" width="416" height="18" rx="4"/><rect class="bar" x="214" y="470" width="26.5" height="18" rx="4"/><text class="val" x="638" y="484" font-size="12">817</text><text x="204" y="512" font-size="13" text-anchor="end">legal</text><rect class="track" x="214" y="498" width="416" height="18" rx="4"/><rect class="bar" x="214" y="498" width="17.9" height="18" rx="4"/><text class="val" x="638" y="512" font-size="12">552</text><text x="204" y="540" font-size="13" text-anchor="end">science</text><rect class="track" x="214" y="526" width="416" height="18" rx="4"/><rect class="bar" x="214" y="526" width="7.1" height="18" rx="4"/><text class="val" x="638" y="540" font-size="12">219</text><text x="204" y="568" font-size="13" text-anchor="end">education</text><rect class="track" x="214" y="554" width="416" height="18" rx="4"/><rect class="bar" x="214" y="554" width="2.0" height="18" rx="4"/><text class="val" x="638" y="568" font-size="12">16</text></svg>
