<svg xmlns="http://www.w3.org/2000/svg" viewBox="0 0 720 514" width="720" height="514" role="img" aria-label="Most requested skills"><style>
text{font-family:system-ui,-apple-system,"Segoe UI",Roboto,sans-serif;fill:#1d1b20}
.sub,.val,.axis{fill:#49454f}.bar{fill:#6750a4}.track{fill:#e8def8}.grid{stroke:#cac4d0}
.l1{fill:none;stroke:#6750a4;stroke-width:2.5}.d1{fill:#6750a4}.l2{fill:none;stroke:#e08a1e;stroke-width:2.5}.d2{fill:#e08a1e}
@media(prefers-color-scheme:dark){text{fill:#e6e0e9}.sub,.val,.axis{fill:#cac4d0}.bar{fill:#d0bcff}.track{fill:#2b2930}.grid{stroke:#49454f}
.l1{stroke:#d0bcff}.d1{fill:#d0bcff}.l2{stroke:#ffb95c}.d2{fill:#ffb95c}}
</style><text x="24" y="34" font-size="18" font-weight="600">Most requested skills</text><text class="sub" x="24" y="56" font-size="12">17,484 open jobs · updated 2026-10-04</text><text x="204" y="92" font-size="13" text-anchor="end">Python</text><rect class="track" x="214" y="78" width="416" height="18" rx="4"/><rect class="bar" x="214" y="78" width="416.0" height="18" rx="4"/><text class="val" x="638" y="92" font-size="12">2,684</text><text x="204" y="120" font-size="13" text-anchor="end">ML</text><rect class="track" x="214" y="106" width="416" height="18" rx="4"/><rect class="bar" x="214" y="106" width="357.9" height="18" rx="4"/><text class="val" x="638" y="120" font-size="12">2,309</text><text x="204" y="148" font-size="13" text-anchor="end">AWS</text><rect class="track" x="214" y="134" width="416" height="18" rx="4"/><rect class="bar" x="214" y="134" width="258.4" height="18" rx="4"/><text class="val" x="638" y="148" font-size="12">1,667</text><text x="204" y="176" font-size="13" text-anchor="end">SQL</text><rect class="track" x="214" y="162" width="416" height="18" rx="4"/><rect class="bar" x="214" y="162" width="231.9" height="18" rx="4"/><text class="val" x="638" y="176" font-size="12">1,496</text><text x="204" y="204" font-size="13" text-anchor="end">Azure</text><rect class="track" x="214" y="190" width="416" height="18" rx="4"/><rect class="bar" x="214" y="190" width="195.3" height="18" rx="4"/><text class="val" x="638" y="204" font-size="12">1,260</text><text x="204" y="232" font-size="13" text-anchor="end">Java</text><rect class="track" x="214" y="218" width="416" height="18" rx="4"/><rect class="bar" x="214" y="218" width="172.4" height="18" rx="4"/><text class="val" x="638" y="232" font-size="12">1,112</text><text x="204" y="260" font-size="13" text-anchor="end">Databricks</text><rect class="track" x="214" y="246" width="416" height="18" rx="4"/><rect class="bar" x="214" y="246" width="159.3" height="18" rx="4"/><text class="val" x="638" y="260" font-size="12">1,028</text><text x="204" y="288" font-size="13" text-anchor="end">TypeScript</text><rect class="track" x="214" y="274" width="416" height="18" rx="4"/><rect class="bar" x="214" y="274" width="149.9" height="18" rx="4"/><text class="val" x="638" y="288" font-size="12">967</text><text x="204" y="316" font-size="13" text-anchor="end">Kubernetes</text><rect class="track" x="214" y="302" width="416" height="18" rx="4"/><rect class="bar" x="214" y="302" width="137.6" height="18" rx="4"/><text class="val" x="638" y="316" font-size="12">888</text><text x="204" y="344" font-size="13" text-anchor="end">Salesforce</text><rect class="track" x="214" y="330" width="416" height="18" rx="4"/><rect class="bar" x="214" y="330" width="134.8" height="18" rx="4"/><text class="val" x="638" y="344" font-size="12">870</text><text x="204" y="372" font-size="13" text-anchor="end">JavaScript</text><rect class="track" x="214" y="358" width="416" height="18" rx="4"/><rect class="bar" x="214" y="358" width="134.4" height="18" rx="4"/><text class="val" x="638" y="372" font-size="12">867</text><text x="204" y="400" font-size="13" text-anchor="end">LLM</text><rect class="track" x="214" y="386" width="416" height="18" rx="4"/><rect class="bar" x="214" y="386" width="131.7" height="18" rx="4"/><text class="val" x="638" y="400" font-size="12">850</text><text x="204" y="428" font-size="13" text-anchor="end">GCP</text><rect class="track" x="214" y="414" width="416" height="18" rx="4"/><rect class="bar" x="214" y="414" width="120.6" height="18" rx="4"/><text class="val" x="638" y="428" font-size="12">778</text><text x="204" y="456" font-size="13" text-anchor="end">CI/CD</text><rect class="track" x="214" y="442" width="416" height="18" rx="4"/><rect class="bar" x="214" y="442" width="111.9" height="18" rx="4"/><text class="val" x="638" y="456" font-size="12">722</text><text x="204" y="484" font-size="13" text-anchor="end">C++</text><rect class="track" x="214" y="470" width="416" height="18" rx="4"/><rect class="bar" x="214" y="470" width="102.3" height="18" rx="4"/><text class="val" x="638" y="484" font-size="12">660</text></svg>
